<svg width="120" height="210" viewBox="0 0 120 210" fill="none" xmlns="http://www.w3.org/2000/svg">
<path d="M43.8787 133.879C44.2692 134.269 44.9024 134.269 45.2929 133.879L88.8787 90.2929C89.2692 89.9023 89.2692 89.2692 88.8787 88.8786L75.2929 75.2929C74.9024 74.9023 74.2692 74.9023 73.8787 75.2929L30.2929 118.879C29.9024 119.269 29.9024 119.902 30.2929 120.293L43.8787 133.879Z" fill="#E3E7E9"/>
<path d="M88.8786 0.292893C89.2691 -0.0976311 89.9023 -0.0976312 90.2928 0.292893L103.879 13.8787C104.269 14.2692 104.269 14.9024 103.879 15.2929L15.2929 103.879C14.9024 104.269 14.2692 104.269 13.8787 103.879L0.292894 90.2929C-0.0976304 89.9024 -0.0976316 89.2692 0.292892 88.8787L88.8786 0.292893Z" fill="#E3E7E9"/>
<path d="M30.2929 208.879C29.9024 209.269 29.2692 209.269 28.8787 208.879L15.2929 195.293C14.9024 194.902 14.9024 194.269 15.2929 193.879L103.879 105.293C104.269 104.902 104.902 104.902 105.293 105.293L118.879 118.879C119.269 119.269 119.269 119.902 118.879 120.293L30.2929 208.879Z" fill="#E3E7E9"/>
</svg>
