<?xml version="1.0" standalone="no"?>
<!DOCTYPE svg PUBLIC "-//W3C//DTD SVG 20010904//EN"
 "http://www.w3.org/TR/2001/REC-SVG-20010904/DTD/svg10.dtd">
<svg version="1.0" xmlns="http://www.w3.org/2000/svg"
 width="1136.000000pt" height="1136.000000pt" viewBox="0 0 1136.000000 1136.000000"
 preserveAspectRatio="xMidYMid meet">
<metadata>
Created by potrace 1.11, written by Peter Selinger 2001-2013
</metadata>
<g transform="translate(0.000000,1136.000000) scale(0.100000,-0.100000)"
fill="#000000" stroke="none">
<path d="M6060 10537 c-3 -2 -59 -7 -125 -11 -138 -8 -158 -10 -355 -37 -409
-57 -825 -166 -1240 -326 -63 -24 -128 -50 -145 -58 -16 -7 -59 -25 -95 -40
-285 -119 -707 -350 -1011 -555 -1219 -818 -2072 -1989 -2324 -3189 -14 -68
-28 -140 -31 -160 -2 -20 -6 -45 -9 -56 -2 -11 -7 -49 -11 -85 -3 -36 -8 -68
-10 -71 -8 -14 -18 -237 -18 -399 0 -163 8 -352 19 -410 2 -14 7 -46 9 -72 22
-187 84 -457 156 -678 135 -417 361 -850 643 -1235 67 -91 223 -289 262 -331
5 -6 46 -51 90 -99 85 -94 209 -219 321 -325 57 -54 307 -269 364 -313 540
-418 1144 -748 1760 -960 234 -81 436 -137 690 -190 91 -19 187 -38 213 -42
27 -3 59 -8 70 -11 12 -2 42 -7 67 -10 25 -3 52 -7 60 -9 15 -3 115 -14 180
-20 271 -25 754 -25 935 0 17 2 71 9 120 15 136 17 150 19 290 46 464 89 961
277 1340 507 69 42 238 150 250 160 6 4 49 36 96 71 663 483 1221 1206 1577
2041 198 466 329 923 407 1425 3 19 7 46 10 60 2 14 7 48 10 75 3 28 7 66 10
85 8 56 13 119 20 215 4 50 8 110 10 135 5 54 5 543 1 620 -7 116 -18 238 -27
310 -5 42 -12 94 -14 115 -24 198 -87 499 -150 717 -260 904 -747 1623 -1460
2158 -512 385 -1093 653 -1770 819 -129 31 -302 67 -375 76 -25 3 -52 8 -60
10 -13 3 -66 9 -195 21 -63 6 -550 15 -555 11z"/>
</g>
</svg>
